<?xml version="1.0" encoding="UTF-8"?>
<svg id="Ebene_2" data-name="Ebene 2" xmlns="http://www.w3.org/2000/svg" viewBox="0 0 702.07 702.07">
  <defs>
    <style>
      .cls-1 {
        fill: #313130;
      }

      .cls-2 {
        fill: #fff;
        stroke: #fff;
        stroke-miterlimit: 10;
        stroke-width: .25px;
      }
    </style>
  </defs>
  <g id="Ebene_1-2" data-name="Ebene 1">
    <rect class="cls-1" width="702.07" height="702.07"/>
    <rect class="cls-2" x="245.55" y="220.47" width="46.87" height="261.13" rx="23.43" ry="23.43"/>
    <rect class="cls-2" x="163.5" y="170.53" width="46.87" height="361.01" rx="23.43" ry="23.43"/>
    <rect class="cls-2" x="81.45" y="270.94" width="46.87" height="160.19" rx="23.43" ry="23.43"/>
    <rect class="cls-2" x="327.6" y="107.43" width="46.87" height="487.2" rx="23.43" ry="23.43"/>
    <rect class="cls-2" x="81.45" y="107.43" width="46.87" height="46.87"/>
    <rect class="cls-2" x="81.45" y="547.77" width="46.87" height="46.87"/>
    <rect class="cls-2" x="409.65" y="220.47" width="46.87" height="261.13" rx="23.43" ry="23.43" transform="translate(866.17 702.07) rotate(180)"/>
    <rect class="cls-2" x="491.7" y="170.53" width="46.87" height="361.01" rx="23.43" ry="23.43" transform="translate(1030.27 702.07) rotate(-180)"/>
    <rect class="cls-2" x="573.75" y="270.94" width="46.87" height="160.19" rx="23.43" ry="23.43" transform="translate(1194.36 702.07) rotate(180)"/>
    <rect class="cls-2" x="573.75" y="547.77" width="46.87" height="46.87" transform="translate(1194.36 1142.4) rotate(-180)"/>
    <rect class="cls-2" x="573.75" y="107.43" width="46.87" height="46.87" transform="translate(1194.36 261.74) rotate(-180)"/>
  </g>
</svg>